<?xml version="1.0" encoding="UTF-8"?>
<!DOCTYPE svg PUBLIC "-//W3C//DTD SVG 1.1//EN" "http://www.w3.org/Graphics/SVG/1.1/DTD/svg11.dtd">
<!-- Creator: CorelDRAW (Versão OEM) -->
<svg xmlns="http://www.w3.org/2000/svg" xml:space="preserve" width="1.66666in" height="1.66666in" version="1.1" shape-rendering="geometricPrecision" text-rendering="geometricPrecision" image-rendering="optimizeQuality" fill-rule="evenodd" clip-rule="evenodd"
viewBox="0 0 1666.66 1666.66"
 xmlns:xlink="http://www.w3.org/1999/xlink"
 xmlns:xodm="http://www.corel.com/coreldraw/odm/2003">
 <g id="Camada_x0020_1">
  <metadata id="CorelCorpID_0Corel-Layer"/>
  <g id="_1542562144896">
   <g>
    <path fill="black" d="M950.38 648.59c-7.02,18.67 -12.49,52.13 -10.86,90.72 1.62,38.58 10.34,82.3 23.11,117.42 12.76,35.11 29.56,61.64 59.21,82.35 29.66,20.7 72.15,35.56 105.82,39.74 33.67,4.18 58.52,-2.32 81.43,-13.11 22.91,-10.8 43.87,-25.87 57.13,-34.28 13.27,-8.41 18.84,-10.15 22.49,-8.22 3.65,1.92 5.39,7.48 8.41,13.26 3.02,5.78 7.33,11.77 13.14,16.68 5.8,4.91 13.09,8.75 15.04,13.03 1.94,4.28 -1.47,9.01 -8.09,17.18 -6.62,8.16 -16.44,19.77 -24.53,36.95 -8.09,17.17 -14.46,39.91 -11.18,60.28 3.28,20.35 16.2,38.32 26.31,49.23 10.11,10.89 17.41,14.74 33.94,18.76 16.52,4.02 42.26,8.22 67.35,8.36 25.09,0.13 49.51,-3.8 69.85,-15.02 20.33,-11.22 36.56,-29.7 46.94,-68.97 10.38,-39.27 14.9,-99.33 7.65,-152.04 -7.24,-52.72 -26.26,-98.11 -46.51,-127.85 -20.25,-29.73 -41.73,-43.81 -59.98,-53.4 -18.26,-9.59 -33.28,-14.7 -49.36,-13.35 -16.07,1.34 -33.2,9.11 -47.96,18.59 -14.76,9.48 -27.16,20.67 -33.78,28.84 -6.63,8.17 -7.46,13.31 -10.67,16.76 -3.2,3.44 -8.78,5.17 -15.41,5.4 -6.65,0.24 -14.37,-1.03 -21.43,1.79 -7.07,2.81 -13.48,9.68 -17.11,15.7 -3.63,6.02 -4.46,11.16 -4.23,17.81 0.24,6.65 1.55,14.79 4.78,19.28 3.23,4.49 8.37,5.33 13.31,7.46 4.93,2.13 9.67,5.54 7.54,10.48 -2.14,4.93 -11.11,11.39 -32.31,19.82 -21.2,8.43 -54.61,18.83 -80.32,22.56 -25.72,3.72 -43.74,0.78 -58.33,-6.89 -14.61,-7.68 -25.8,-20.07 -36.57,-35.04 -10.77,-14.97 -21.11,-32.52 -25.71,-61.02 -4.59,-28.5 -3.43,-67.96 -3.09,-94.32 0.34,-26.37 -0.13,-39.67 -1.02,-50.39 -0.89,-10.72 -2.21,-18.85 -9.09,-25.26 -6.88,-6.41 -19.33,-11.09 -29.84,-11.48 -10.51,-0.4 -19.07,3.5 -26.08,22.17z"/>
    <path fill="black" d="M698.47 1038.82c4.28,-1.94 7.7,-6.67 12.4,-11.19 4.7,-4.52 10.69,-8.83 17.76,-11.63 7.06,-2.81 15.2,-4.13 21.43,-1.79 6.23,2.34 10.53,8.33 14.85,14.31 4.3,5.98 8.61,11.98 10.56,16.26 1.94,4.28 1.52,6.86 3.67,9.85 2.15,2.99 6.88,6.42 11.83,8.54 4.93,2.13 10.08,2.97 18.46,8.31 8.38,5.33 19.99,15.15 31.18,27.55 11.19,12.4 21.95,27.37 28,38.93 6.04,11.56 7.36,19.69 8.88,26.56 1.52,6.85 3.26,12.43 -15.52,38.43 -18.79,26 -58.08,72.43 -95.94,101.93 -37.85,29.49 -74.26,42.05 -104.67,50.3 -30.43,8.24 -54.85,12.17 -77.15,11.18 -22.3,-1 -42.46,-6.94 -57.49,-12.03 -15.03,-5.1 -24.91,-9.36 -34.36,-16.19 -9.46,-6.84 -18.49,-16.24 -25.61,-29.29 -7.12,-13.06 -12.31,-29.77 -15.35,-43.48 -3.05,-13.71 -3.94,-24.43 -5.7,-37.93 -1.76,-13.5 -4.39,-29.79 1.13,-47.39 5.52,-17.6 19.18,-36.5 33.07,-48.77 13.9,-12.27 28.03,-17.89 46.47,-17.52 18.43,0.36 41.18,6.73 56.21,11.82 15.02,5.1 22.32,8.93 25.98,10.85 3.65,1.92 3.65,1.92 4.28,-1.94 0.63,-3.87 1.89,-11.58 4.44,-19.1 2.55,-7.52 6.39,-14.81 12.17,-17.83 5.78,-3.03 13.49,-1.77 17.36,-1.13 3.85,0.63 3.85,0.63 -7.54,-10.48 -11.4,-11.11 -34.2,-33.34 -49.93,-58.37 -15.74,-25.04 -24.4,-52.89 -28.99,-81.38 -4.59,-28.5 -5.12,-57.66 -0.26,-79.32 4.86,-21.67 15.1,-35.86 34.55,-57.79 19.44,-21.93 48.07,-51.61 88.1,-70.18 40.03,-18.57 91.46,-26.03 121.25,-30.4 29.78,-4.39 37.92,-5.71 44.57,-5.94 6.65,-0.24 11.8,0.61 17.6,5.52 5.81,4.91 12.26,13.89 13.37,23.32 1.1,9.43 -3.17,19.31 -19,27.3 -15.84,7.98 -43.27,14.07 -75.18,23.39 -31.92,9.32 -68.32,21.88 -94.64,37.4 -26.32,15.52 -42.56,34.01 -51.49,56.33 -8.94,22.32 -10.56,48.48 -5.13,71.83 5.43,23.35 17.94,43.89 27.41,58.66 9.48,14.76 15.94,23.74 21.75,28.66 5.8,4.91 10.95,5.75 15.23,3.81z"/>
   </g>
   <path fill="black" d="M1464.92 504.39c-15.41,-7.23 -39.99,-21.96 -70.91,-31.96 -30.92,-9.99 -68.18,-15.24 -114.13,-14.48 -45.94,0.77 -100.57,7.56 -136.97,12.6 -36.4,5.05 -54.57,8.35 -64.28,16.94 -9.72,8.59 -10.98,22.48 -11.92,39.19 -0.94,16.7 -1.54,36.22 -4.84,47.91 -3.3,11.7 -9.29,15.58 -17.08,15.91 -7.79,0.33 -17.37,-2.89 -26.93,-8.48 -9.56,-5.58 -19.09,-13.53 -26.86,-20.54 -7.76,-7.01 -13.76,-13.08 -18.57,-17.31 -4.82,-4.22 -8.46,-6.6 -20.85,-3.21 -12.39,3.39 -33.51,12.56 -45.28,26.3 -11.78,13.74 -14.2,32.07 -44.46,47.61 -30.26,15.54 -88.35,28.3 -181.03,45.98 -92.69,17.68 -219.95,40.3 -312.76,41.24 -92.8,0.94 -151.13,-19.78 -184.59,-31.86 -33.46,-12.08 -42.04,-15.51 -49.35,-17.9 -7.31,-2.39 -13.36,-3.74 46.26,-29.13 59.62,-25.39 184.91,-74.83 248.67,-99.26 63.76,-24.43 65.97,-23.85 130.06,-40.48 64.09,-16.64 190.04,-50.5 260.7,-68.26 70.66,-17.76 86.03,-19.43 94.56,-21.22 8.53,-1.8 10.22,-3.72 14.28,-9.3 4.07,-5.57 10.51,-14.79 16.78,-21.09 6.28,-6.3 12.37,-9.68 20.54,-11.92 8.17,-2.25 18.42,-3.36 25.34,-0.36 6.92,2.99 10.51,10.1 24.41,12.67 13.91,2.57 38.12,0.62 112.33,-8.98 74.21,-9.61 198.42,-26.85 269,-37.52 70.58,-10.67 87.53,-14.77 99.48,-16.5 11.95,-1.73 18.89,-1.1 22.72,4.65 3.83,5.74 4.54,16.59 2.67,45.02 -1.87,28.43 -6.33,74.43 -9.42,102.06 -3.09,27.63 -4.8,36.9 -7.85,43.57 -3.05,6.67 -7.43,10.73 -12.74,12.9 -5.31,2.17 -11.54,2.43 -26.94,-4.81z"/>
  </g>
 </g>
</svg>
