<?xml version="1.0" encoding="UTF-8"?>
<!DOCTYPE svg PUBLIC "-//W3C//DTD SVG 1.1//EN" "http://www.w3.org/Graphics/SVG/1.1/DTD/svg11.dtd">
<!-- Creator: CorelDRAW (Versão OEM) -->
<svg xmlns="http://www.w3.org/2000/svg" xml:space="preserve" width="1.66666in" height="1.66666in" version="1.1" shape-rendering="geometricPrecision" text-rendering="geometricPrecision" image-rendering="optimizeQuality" fill-rule="evenodd" clip-rule="evenodd"
viewBox="0 0 1666.66 1666.66"
 xmlns:xlink="http://www.w3.org/1999/xlink"
 xmlns:xodm="http://www.corel.com/coreldraw/odm/2003">
 <g id="Camada_x0020_1">
  <metadata id="CorelCorpID_0Corel-Layer"/>
  <g id="_1541895957248">
   <g>
    <path fill="black" d="M1008.75 770.79c0,23.47 5.22,65.21 19.56,104.33 14.34,39.12 37.81,75.64 61.29,99.11 23.47,23.48 46.95,33.9 57.38,41.73 10.43,7.83 7.82,13.04 9.12,22.17 1.31,9.13 6.52,22.17 11.74,31.3 5.22,9.12 10.44,14.34 13.05,16.95 2.61,2.61 2.61,2.61 0,6.52 -2.61,3.91 -7.83,11.73 -11.74,18.25 -3.91,6.53 -6.52,11.74 -10.43,14.35 -3.91,2.61 -9.13,2.61 -19.56,1.3 -10.43,-1.3 -26.08,-3.92 -37.82,-3.92 -11.74,0 -19.56,2.61 -26.08,7.83 -6.53,5.21 -11.74,13.03 -15.66,23.46 -3.91,10.43 -6.52,23.48 -6.52,43.04 0,19.56 2.61,45.65 11.73,67.81 9.13,22.16 24.79,40.43 50.87,48.25 26.08,7.82 62.6,5.21 87.38,3.91 24.78,-1.3 37.81,-1.3 46.94,-2.61 9.13,-1.3 14.35,-3.92 24.78,-14.35 10.44,-10.43 26.09,-28.69 43.04,-53.46 16.96,-24.79 35.21,-56.08 48.25,-84.77 13.05,-28.69 20.87,-54.78 24.78,-71.72 3.92,-16.96 3.92,-24.78 -1.3,-33.91 -5.21,-9.13 -15.65,-19.57 -29.99,-30 -14.34,-10.43 -32.61,-20.87 -43.04,-26.08 -10.43,-5.22 -13.04,-5.22 -14.34,-9.13 -1.3,-3.92 -1.3,-11.74 -3.91,-20.87 -2.61,-9.13 -7.83,-19.56 -13.05,-27.38 -5.21,-7.83 -10.43,-13.04 -18.25,-16.95 -7.83,-3.92 -18.26,-6.52 -28.69,-5.22 -10.43,1.3 -20.87,6.52 -28.69,13.05 -7.82,6.52 -13.04,14.33 -18.26,16.95 -5.21,2.61 -10.43,-0.01 -16.95,-3.92 -6.52,-3.91 -14.34,-9.13 -23.47,-19.56 -9.13,-10.43 -19.56,-26.09 -29.99,-39.13 -10.43,-13.04 -20.87,-23.47 -27.39,-40.43 -6.52,-16.96 -9.13,-40.43 -11.74,-58.68 -2.61,-18.26 -5.21,-31.3 -9.13,-40.43 -3.91,-9.13 -9.12,-14.35 -18.25,-15.65 -9.13,-1.3 -22.17,1.3 -31.3,5.22 -9.12,3.91 -14.34,9.12 -14.34,32.59z"/>
    <path fill="black" d="M916.15 789.05c-27.38,39.12 -79.55,106.93 -116.07,155.19 -36.51,48.25 -57.37,76.94 -66.5,92.59 -9.13,15.65 -6.52,18.26 -3.92,20.87 2.61,2.61 5.22,5.21 6.52,10.43 1.3,5.21 1.3,13.03 0,22.16 -1.3,9.13 -3.92,19.56 -7.83,26.09 -3.91,6.52 -9.13,9.13 -11.74,10.43 -2.61,1.3 -2.61,1.3 -1.3,10.43 1.3,9.12 3.92,27.38 2.61,43.03 -1.3,15.65 -6.52,28.7 -13.04,44.34 -6.52,15.65 -14.34,33.91 -22.17,48.25 -7.83,14.34 -15.65,24.78 -23.47,31.3 -7.83,6.51 -15.65,9.13 -28.69,9.13 -13.04,0 -31.3,-2.62 -54.78,-10.43 -23.48,-7.83 -52.16,-20.87 -80.85,-44.34 -28.69,-23.48 -57.38,-57.38 -75.65,-83.46 -18.25,-26.09 -26.07,-44.34 -29.99,-62.59 -3.91,-18.26 -3.91,-36.52 5.22,-57.38 9.13,-20.87 27.38,-44.34 45.64,-58.69 18.26,-14.35 36.52,-19.57 50.87,-22.17 14.34,-2.61 24.78,-2.61 36.51,0 11.74,2.61 24.78,7.82 35.21,15.65 10.43,7.83 18.25,18.25 23.46,20.87 5.22,2.61 7.83,-2.61 11.74,-6.52 3.91,-3.91 9.13,-6.52 14.34,-7.83 5.22,-1.3 10.44,-1.3 16.96,-1.3 6.52,0 14.34,0 22.17,1.3 7.83,1.3 15.65,3.92 19.56,5.22 3.92,1.3 3.92,1.3 14.35,-16.95 10.43,-18.26 31.29,-54.78 58.67,-93.9 27.39,-39.13 61.3,-80.85 87.38,-112.16 26.08,-31.3 44.34,-52.16 58.69,-62.59 14.34,-10.44 24.78,-10.44 33.91,-6.52 9.13,3.91 16.95,11.72 19.56,20.86 2.62,9.13 0,19.56 -27.38,58.69z"/>
   </g>
   <path fill="black" d="M1472.03 552.2c-15.41,-7.23 -39.99,-21.96 -70.91,-31.96 -30.92,-10 -68.18,-15.24 -114.12,-14.48 -45.94,0.77 -100.57,7.56 -136.98,12.6 -36.4,5.04 -54.57,8.34 -64.28,16.94 -9.72,8.59 -10.98,22.48 -11.92,39.19 -0.94,16.7 -1.54,36.22 -4.85,47.91 -3.3,11.7 -9.29,15.58 -17.08,15.91 -7.79,0.33 -17.37,-2.89 -26.93,-8.48 -9.56,-5.59 -19.09,-13.54 -26.85,-20.54 -7.76,-7.01 -13.76,-13.08 -18.58,-17.31 -4.82,-4.22 -8.46,-6.6 -20.85,-3.2 -12.38,3.39 -33.5,12.56 -45.28,26.3 -11.78,13.74 -14.2,32.07 -44.46,47.61 -30.26,15.54 -88.35,28.3 -181.03,45.98 -92.68,17.69 -219.95,40.3 -312.76,41.24 -92.8,0.94 -151.13,-19.78 -184.59,-31.86 -33.45,-12.08 -42.04,-15.51 -49.35,-17.9 -7.31,-2.39 -13.36,-3.74 46.26,-29.13 59.62,-25.39 184.91,-74.83 248.67,-99.26 63.75,-24.43 65.97,-23.85 130.06,-40.48 64.08,-16.64 190.04,-50.5 260.69,-68.26 70.66,-17.76 86.03,-19.43 94.56,-21.22 8.53,-1.8 10.22,-3.72 14.29,-9.3 4.07,-5.57 10.51,-14.79 16.78,-21.09 6.27,-6.3 12.37,-9.68 20.54,-11.92 8.17,-2.25 18.42,-3.35 25.33,-0.36 6.92,2.99 10.51,10.1 24.41,12.67 13.9,2.57 38.11,0.62 112.32,-8.98 74.21,-9.6 198.42,-26.85 269,-37.52 70.58,-10.67 87.53,-14.77 99.48,-16.5 11.95,-1.73 18.89,-1.1 22.72,4.65 3.83,5.74 4.54,16.59 2.67,45.02 -1.87,28.43 -6.33,74.43 -9.42,102.06 -3.09,27.63 -4.8,36.9 -7.85,43.57 -3.05,6.67 -7.44,10.74 -12.74,12.9 -5.31,2.17 -11.54,2.43 -26.94,-4.81z"/>
  </g>
 </g>
</svg>
