<?xml version="1.0" encoding="UTF-8"?>
<!DOCTYPE svg PUBLIC "-//W3C//DTD SVG 1.1//EN" "http://www.w3.org/Graphics/SVG/1.1/DTD/svg11.dtd">
<!-- Creator: CorelDRAW (Versão OEM) -->
<svg xmlns="http://www.w3.org/2000/svg" xml:space="preserve" width="1.66666in" height="1.66666in" version="1.1" shape-rendering="geometricPrecision" text-rendering="geometricPrecision" image-rendering="optimizeQuality" fill-rule="evenodd" clip-rule="evenodd"
viewBox="0 0 1666.66 1666.66"
 xmlns:xlink="http://www.w3.org/1999/xlink"
 xmlns:xodm="http://www.corel.com/coreldraw/odm/2003">
 <g id="Camada_x0020_1">
  <metadata id="CorelCorpID_0Corel-Layer"/>
  <g id="_1497850206816">
   <path fill="black" d="M1008.65 475.2c0,34.72 7.72,96.46 28.94,154.33 21.22,57.87 55.94,111.89 90.67,146.61 34.72,34.72 69.44,50.15 84.88,61.72 15.43,11.58 11.57,19.29 13.49,32.8 1.94,13.5 9.65,32.8 17.36,46.3 7.72,13.5 15.45,21.22 19.3,25.07 3.85,3.85 3.85,3.85 0,9.65 -3.85,5.78 -11.58,17.35 -17.36,27 -5.78,9.65 -9.65,17.36 -15.43,21.23 -5.78,3.85 -13.51,3.85 -28.94,1.93 -15.42,-1.93 -38.58,-5.8 -55.94,-5.8 -17.36,0 -28.93,3.87 -38.57,11.59 -9.65,7.71 -17.36,19.28 -23.16,34.71 -5.78,15.43 -9.64,34.72 -9.64,63.66 0,28.93 3.86,67.52 17.35,100.31 13.5,32.78 36.67,59.8 75.24,71.37 38.58,11.57 92.61,7.71 129.26,5.78 36.65,-1.93 55.94,-1.93 69.43,-3.85 13.51,-1.93 21.23,-5.8 36.65,-21.23 15.44,-15.43 38.59,-42.43 63.67,-79.08 25.09,-36.67 52.08,-82.95 71.37,-125.39 19.3,-42.45 30.87,-81.03 36.65,-106.1 5.8,-25.09 5.8,-36.65 -1.93,-50.16 -7.71,-13.51 -23.15,-28.94 -44.36,-44.37 -21.22,-15.43 -48.23,-30.87 -63.67,-38.58 -15.42,-7.72 -19.29,-7.72 -21.22,-13.51 -1.93,-5.8 -1.93,-17.36 -5.78,-30.87 -3.86,-13.51 -11.58,-28.93 -19.3,-40.51 -7.71,-11.58 -15.42,-19.29 -27,-25.07 -11.58,-5.8 -27,-9.65 -42.43,-7.72 -15.44,1.93 -30.87,9.65 -42.45,19.3 -11.56,9.64 -19.29,21.2 -27.01,25.07 -7.71,3.86 -15.42,-0.01 -25.07,-5.8 -9.65,-5.78 -21.22,-13.5 -34.72,-28.93 -13.51,-15.43 -28.93,-38.59 -44.36,-57.88 -15.43,-19.29 -30.87,-34.72 -40.52,-59.8 -9.64,-25.09 -13.5,-59.81 -17.36,-86.81 -3.85,-27.01 -7.71,-46.3 -13.5,-59.8 -5.78,-13.51 -13.49,-21.23 -27,-23.16 -13.51,-1.93 -32.8,1.93 -46.3,7.72 -13.49,5.78 -21.22,13.49 -21.22,48.22z"/>
   <path fill="black" d="M871.69 502.21c-40.5,57.87 -117.68,158.18 -171.69,229.56 -54.01,71.37 -84.87,113.82 -98.37,136.96 -13.5,23.15 -9.65,27.01 -5.8,30.87 3.85,3.85 7.72,7.71 9.65,15.43 1.93,7.71 1.93,19.28 0,32.78 -1.93,13.5 -5.8,28.94 -11.58,38.59 -5.78,9.64 -13.51,13.51 -17.36,15.43 -3.85,1.93 -3.85,1.93 -1.93,15.43 1.93,13.5 5.8,40.51 3.85,63.65 -1.93,23.15 -9.64,42.45 -19.29,65.59 -9.65,23.14 -21.22,50.16 -32.8,71.37 -11.58,21.22 -23.15,36.65 -34.72,46.3 -11.58,9.64 -23.14,13.51 -42.43,13.51 -19.29,0 -46.3,-3.87 -81.02,-15.43 -34.72,-11.58 -77.16,-30.87 -119.61,-65.59 -42.43,-34.72 -84.88,-84.88 -111.89,-123.46 -27,-38.59 -38.56,-65.59 -44.36,-92.59 -5.78,-27.01 -5.78,-54.03 7.72,-84.88 13.5,-30.87 40.5,-65.59 67.5,-86.81 27.01,-21.23 54.03,-28.94 75.24,-32.8 21.22,-3.87 36.65,-3.87 54.01,0 17.36,3.85 36.65,11.57 52.08,23.15 15.43,11.58 27,27 34.71,30.87 7.72,3.85 11.59,-3.87 17.38,-9.65 5.78,-5.78 13.5,-9.65 21.22,-11.58 7.72,-1.93 15.43,-1.93 25.08,-1.93 9.65,0 21.22,0 32.8,1.93 11.58,1.93 23.14,5.8 28.93,7.72 5.8,1.93 5.8,1.93 21.23,-25.07 15.43,-27.01 46.29,-81.02 86.79,-138.89 40.52,-57.88 90.68,-119.61 129.26,-165.91 38.58,-46.3 65.59,-77.16 86.81,-92.59 21.22,-15.44 36.65,-15.44 50.16,-9.64 13.51,5.78 25.07,17.35 28.93,30.85 3.87,13.5 0,28.93 -40.51,86.81z"/>
  </g>
 </g>
</svg>
