<?xml version="1.0" encoding="UTF-8"?>
<!DOCTYPE svg PUBLIC "-//W3C//DTD SVG 1.1//EN" "http://www.w3.org/Graphics/SVG/1.1/DTD/svg11.dtd">
<!-- Creator: CorelDRAW (Versão OEM) -->
<svg xmlns="http://www.w3.org/2000/svg" xml:space="preserve" width="1.66666in" height="1.66666in" version="1.1" shape-rendering="geometricPrecision" text-rendering="geometricPrecision" image-rendering="optimizeQuality" fill-rule="evenodd" clip-rule="evenodd"
viewBox="0 0 1666.66 1666.66"
 xmlns:xlink="http://www.w3.org/1999/xlink"
 xmlns:xodm="http://www.corel.com/coreldraw/odm/2003">
 <g id="Camada_x0020_1">
  <metadata id="CorelCorpID_0Corel-Layer"/>
  <g id="_2547736323920">
   <g>
    <path fill="black" d="M786.35 676.81c-7.02,18.67 -12.48,52.13 -10.86,90.72 1.62,38.58 10.34,82.3 23.11,117.42 12.76,35.11 29.56,61.64 59.21,82.35 29.65,20.7 72.15,35.56 105.82,39.74 33.67,4.18 58.52,-2.32 81.43,-13.11 22.91,-10.8 43.86,-25.87 57.13,-34.28 13.26,-8.4 18.84,-10.14 22.48,-8.22 3.65,1.92 5.39,7.48 8.41,13.26 3.02,5.78 7.33,11.77 13.14,16.68 5.8,4.91 13.09,8.75 15.05,13.03 1.94,4.28 -1.47,9.01 -8.09,17.19 -6.62,8.16 -16.44,19.77 -24.53,36.95 -8.1,17.17 -14.46,39.92 -11.18,60.28 3.28,20.35 16.2,38.32 26.31,49.23 10.11,10.89 17.41,14.74 33.93,18.76 16.52,4.02 42.27,8.22 67.35,8.36 25.08,0.13 49.51,-3.81 69.85,-15.02 20.33,-11.22 36.56,-29.7 46.94,-68.97 10.37,-39.27 14.89,-99.33 7.65,-152.04 -7.24,-52.72 -26.26,-98.11 -46.51,-127.85 -20.25,-29.73 -41.73,-43.81 -59.98,-53.4 -18.26,-9.59 -33.29,-14.7 -49.36,-13.35 -16.07,1.34 -33.2,9.11 -47.97,18.59 -14.76,9.48 -27.16,20.67 -33.78,28.84 -6.63,8.17 -7.47,13.31 -10.67,16.76 -3.2,3.44 -8.78,5.17 -15.42,5.4 -6.65,0.24 -14.37,-1.03 -21.43,1.79 -7.07,2.81 -13.48,9.68 -17.11,15.7 -3.62,6.02 -4.46,11.16 -4.23,17.81 0.23,6.65 1.54,14.79 4.78,19.28 3.23,4.49 8.37,5.33 13.31,7.46 4.93,2.13 9.67,5.54 7.54,10.48 -2.13,4.93 -11.11,11.39 -32.31,19.82 -21.2,8.43 -54.61,18.83 -80.32,22.56 -25.72,3.72 -43.74,0.78 -58.34,-6.89 -14.61,-7.68 -25.8,-20.07 -36.56,-35.04 -10.77,-14.97 -21.11,-32.52 -25.71,-61.02 -4.6,-28.5 -3.43,-67.96 -3.09,-94.32 0.34,-26.37 -0.13,-39.67 -1.02,-50.39 -0.89,-10.72 -2.21,-18.85 -9.09,-25.26 -6.89,-6.41 -19.33,-11.09 -29.84,-11.48 -10.51,-0.4 -19.06,3.5 -26.08,22.17z"/>
    <path fill="black" d="M534.44 1067.05c4.28,-1.94 7.7,-6.67 12.4,-11.19 4.7,-4.52 10.69,-8.83 17.76,-11.63 7.06,-2.81 15.2,-4.13 21.43,-1.79 6.23,2.33 10.53,8.33 14.84,14.31 4.3,5.98 8.61,11.98 10.56,16.26 1.94,4.28 1.52,6.86 3.67,9.85 2.15,2.99 6.89,6.42 11.83,8.54 4.94,2.13 10.08,2.97 18.46,8.31 8.38,5.33 19.99,15.15 31.18,27.55 11.19,12.4 21.95,27.37 28,38.93 6.04,11.56 7.35,19.7 8.87,26.56 1.52,6.85 3.26,12.43 -15.52,38.43 -18.79,26 -58.08,72.43 -95.94,101.93 -37.85,29.49 -74.26,42.05 -104.68,50.3 -30.42,8.24 -54.85,12.17 -77.15,11.18 -22.3,-1 -42.46,-6.94 -57.48,-12.03 -15.03,-5.1 -24.91,-9.36 -34.37,-16.19 -9.45,-6.83 -18.49,-16.23 -25.61,-29.29 -7.12,-13.06 -12.31,-29.77 -15.35,-43.48 -3.05,-13.71 -3.94,-24.43 -5.7,-37.93 -1.76,-13.5 -4.38,-29.79 1.13,-47.39 5.52,-17.6 19.18,-36.5 33.07,-48.77 13.9,-12.27 28.03,-17.89 46.47,-17.52 18.44,0.36 41.18,6.73 56.21,11.82 15.02,5.09 22.31,8.93 25.97,10.85 3.65,1.92 3.65,1.92 4.28,-1.94 0.63,-3.87 1.89,-11.58 4.44,-19.1 2.55,-7.52 6.39,-14.81 12.17,-17.83 5.78,-3.03 13.49,-1.77 17.36,-1.13 3.86,0.63 3.86,0.63 -7.54,-10.48 -11.4,-11.11 -34.2,-33.34 -49.93,-58.37 -15.74,-25.04 -24.4,-52.89 -28.98,-81.38 -4.6,-28.5 -5.13,-57.66 -0.26,-79.32 4.86,-21.67 15.1,-35.86 34.55,-57.79 19.43,-21.93 48.07,-51.61 88.1,-70.18 40.03,-18.57 91.46,-26.03 121.25,-30.4 29.78,-4.39 37.92,-5.71 44.57,-5.94 6.65,-0.24 11.79,0.61 17.6,5.52 5.81,4.91 12.27,13.89 13.37,23.32 1.1,9.43 -3.16,19.31 -19,27.3 -15.84,7.98 -43.27,14.07 -75.18,23.39 -31.92,9.32 -68.32,21.88 -94.64,37.4 -26.32,15.52 -42.56,34.01 -51.49,56.33 -8.94,22.33 -10.56,48.49 -5.13,71.84 5.43,23.35 17.94,43.89 27.42,58.66 9.48,14.76 15.94,23.74 21.74,28.66 5.8,4.91 10.95,5.75 15.23,3.81z"/>
   </g>
   <path fill="black" stroke="black" stroke-width="6.67" stroke-miterlimit="2.61313" d="M1399.74 1029.35c17.45,-30 53.83,-98.85 73.81,-151.17 19.98,-52.32 23.56,-88.11 24.54,-104.29 0.98,-16.17 -0.65,-12.74 -5.22,-7.77 -4.57,4.97 -12.09,11.48 -20.82,20.49 -8.73,9.02 -18.67,20.56 -19.27,13.59 -0.59,-6.96 8.15,-32.41 15.15,-52.99 7,-20.58 12.24,-36.3 16.06,-49.81 3.82,-13.51 6.22,-24.83 8.76,-36.85 2.55,-12.02 5.25,-24.76 -11.29,-9.67 -16.54,15.09 -52.31,58.01 -70.2,78.35 -17.89,20.34 -17.89,18.09 -11.53,-10.71 6.36,-28.8 19.08,-84.17 25.94,-116.26 6.87,-32.09 7.88,-40.91 8.84,-49.35 0.96,-8.44 1.89,-16.5 -14.33,-1.61 -16.22,14.89 -49.57,52.71 -76.35,76.86 -26.78,24.15 -46.98,34.63 -61.06,52.37 -14.07,17.75 -22.02,42.76 -14.54,57.35 7.48,14.59 30.4,18.75 57.4,48.15 27,29.39 58.09,84.02 68.71,130.82 10.62,46.81 0.76,85.8 -4.9,109.72 -5.66,23.93 -7.13,32.79 10.32,2.79z"/>
   <path fill="black" stroke="black" stroke-width="6.67" stroke-miterlimit="2.61313" d="M1050.05 416.54c-125.74,98.4 -296.33,228.17 -357.39,233.43 -61.06,5.25 -12.59,-114.03 -134.47,-62.8 -121.89,51.22 -414.14,272.96 -388.26,229.16 25.88,-43.81 369.88,-353.18 508.06,-442.55 138.17,-89.37 70.52,41.24 146.15,46.3 75.63,5.04 294.54,-115.48 363.54,-142.22 69.01,-26.75 -11.89,40.28 -137.63,138.69z"/>
   <path fill="black" stroke="black" stroke-width="6.67" stroke-miterlimit="2.61313" d="M693.84 1106.74c-8.41,-9.81 -14.72,-15.78 -14.2,-23.67 0.53,-7.89 7.89,-17.7 18.93,-38.57 11.05,-20.86 25.77,-52.77 37.05,-74.74 11.28,-21.98 19.11,-34.03 23.67,-41.04 4.56,-7.01 5.85,-8.99 6.84,-3.84 0.99,5.15 1.69,17.42 3.14,33.69 1.44,16.26 3.64,36.52 4.95,50.52 1.31,13.99 1.74,21.72 1.56,29.57 -0.18,7.85 -0.97,15.83 6.46,8.72 7.43,-7.12 23.08,-29.33 31.56,-41.38 8.48,-12.04 9.79,-13.91 11.33,-16.11 1.54,-2.2 3.32,-4.73 3.39,3.88 0.07,8.61 -1.56,28.37 -2.37,48.41 -0.81,20.04 -0.81,40.38 -1.17,54.23 -0.35,13.85 -1.06,21.22 1.5,20.63 2.56,-0.59 8.36,-9.13 15.93,-17.72 7.57,-8.59 16.9,-17.22 26.17,-25.58 9.28,-8.35 18.5,-16.42 17.68,-9.06 -0.81,7.35 -11.67,30.13 -19.46,49.41 -7.8,19.28 -12.53,35.08 -41.89,64.36 -29.37,29.28 -83.36,72.06 -114.39,96.78 -31.03,24.72 -39.09,31.38 -31.71,24.02 7.39,-7.36 30.22,-28.74 43.89,-50.13 13.68,-21.39 18.19,-42.78 16.76,-60.31 -1.42,-17.54 -8.79,-31.21 -17.73,-44.89 -8.94,-13.67 -19.46,-27.35 -27.87,-37.17z"/>
  </g>
 </g>
</svg>
