<?xml version="1.0" encoding="UTF-8"?>
<!DOCTYPE svg PUBLIC "-//W3C//DTD SVG 1.1//EN" "http://www.w3.org/Graphics/SVG/1.1/DTD/svg11.dtd">
<!-- Creator: CorelDRAW (Versão OEM) -->
<svg xmlns="http://www.w3.org/2000/svg" xml:space="preserve" width="1.66666in" height="1.66666in" version="1.1" shape-rendering="geometricPrecision" text-rendering="geometricPrecision" image-rendering="optimizeQuality" fill-rule="evenodd" clip-rule="evenodd"
viewBox="0 0 1666.66 1666.66"
 xmlns:xlink="http://www.w3.org/1999/xlink"
 xmlns:xodm="http://www.corel.com/coreldraw/odm/2003">
 <g id="Camada_x0020_1">
  <metadata id="CorelCorpID_0Corel-Layer"/>
  <g id="_1541893768928">
   <path fill="black" d="M235.21 297.06c-43.03,-9.9 -77.72,-17.52 -97.46,-22.93 -19.74,-5.41 -24.52,-8.61 -28.11,-11 -3.59,-2.39 -5.98,-3.99 -12.88,-6.35 -6.9,-2.36 -18.3,-5.49 -26.52,-8.21 -8.21,-2.72 -13.23,-5.04 -15.3,-11.27 -2.07,-6.22 -1.18,-16.35 0.7,-21.5 1.88,-5.14 4.76,-5.3 14.96,-2.97 10.21,2.33 27.75,7.13 39.07,8.82 11.33,1.69 16.44,0.26 21.5,0.7 5.07,0.44 10.09,2.77 26.08,8.09 15.99,5.33 42.94,13.65 59.25,19.54 16.31,5.88 21.97,9.32 28.74,12.12 6.78,2.8 14.68,4.96 29.28,-1.88 14.61,-6.85 35.93,-22.7 55.6,-29.1 19.68,-6.4 37.7,-3.35 156.9,27.93 119.2,31.27 339.56,90.76 450.58,122.62 111.02,31.86 112.69,36.09 117.5,42.6 4.82,6.51 12.79,15.3 47.68,29.09 34.89,13.8 96.7,32.62 187.09,60.69 90.4,28.07 209.38,65.38 268.83,85.91 59.45,20.54 59.37,24.28 48.88,59.14 -10.49,34.85 -31.39,100.8 -42.65,140.16 -11.25,39.36 -12.86,52.12 -22.8,57.41 -9.94,5.3 -28.2,3.12 -52.41,-4.93 -24.2,-8.04 -54.34,-21.96 -80.24,-47.92 -25.9,-25.96 -47.55,-63.95 -83.21,-102.49 -35.66,-38.54 -85.31,-77.61 -126.37,-101.59 -41.06,-23.98 -73.52,-32.88 -93.81,-37.97 -20.3,-5.09 -28.43,-6.37 -34.66,-4.31 -6.22,2.07 -10.54,7.49 -13.46,14.7 -2.92,7.22 -4.45,16.23 -1.4,32.63 3.06,16.4 10.69,40.18 17.8,62.41 7.11,22.22 13.72,42.89 15.45,58.93 1.74,16.04 -1.39,27.44 -7.1,36.25 -5.72,8.81 -14.02,15.02 -24.36,18.32 -10.33,3.3 -22.7,3.69 -32.03,1.6 -9.33,-2.08 -15.63,-6.63 -21.96,-14.5 -6.33,-7.86 -12.7,-19.04 -18.46,-37.6 -5.76,-18.56 -10.92,-44.49 -18.75,-64.09 -7.83,-19.59 -18.35,-32.85 -25,-41.28 -6.65,-8.42 -9.44,-12.02 -28.5,-18.18 -19.06,-6.17 -54.39,-14.91 -75.52,-22.11 -21.13,-7.2 -28.07,-12.87 -33.2,-19.94 -5.14,-7.06 -8.48,-15.52 -12.43,-21.79 -3.94,-6.27 -8.48,-10.34 -12.83,-8.24 -4.35,2.11 -8.5,10.41 -30.94,37.87 -22.44,27.47 -63.15,74.11 -108.22,106.7 -45.06,32.59 -94.47,51.12 -120.52,56.71 -26.06,5.59 -28.75,-1.75 -32.61,-16.95 -3.85,-15.2 -8.85,-38.26 -15.05,-56.94 -6.2,-18.68 -13.6,-32.96 -15.35,-38.63 -1.75,-5.67 2.16,-2.71 17.28,-8 15.12,-5.29 41.46,-18.82 70.79,-38.74 29.33,-19.92 61.65,-46.23 80.76,-63.29 19.12,-17.06 25.03,-24.87 25.43,-33.25 0.41,-8.38 -4.69,-17.32 -14.96,-26.27 -10.28,-8.94 -25.75,-17.9 -57.02,-29.32 -31.26,-11.42 -78.32,-25.31 -107.55,-33.82 -29.23,-8.51 -40.63,-11.63 -51,-16.83 -10.37,-5.2 -19.69,-12.47 -24.75,-18.1 -5.06,-5.63 -5.85,-9.62 -7.65,-13.41 -1.79,-3.79 -4.58,-7.39 -31.65,-15.28 -27.07,-7.89 -78.44,-20.07 -121.47,-29.98z"/>
   <g>
    <path fill="black" d="M837.41 737.36c-7.02,18.67 -12.48,52.13 -10.86,90.72 1.62,38.58 10.34,82.3 23.11,117.42 12.76,35.11 29.56,61.64 59.21,82.35 29.65,20.7 72.15,35.56 105.82,39.74 33.67,4.18 58.52,-2.32 81.43,-13.11 22.91,-10.8 43.86,-25.87 57.13,-34.28 13.26,-8.4 18.84,-10.14 22.48,-8.22 3.65,1.92 5.39,7.48 8.41,13.26 3.02,5.78 7.33,11.77 13.14,16.68 5.8,4.91 13.09,8.75 15.05,13.03 1.94,4.28 -1.47,9.01 -8.09,17.19 -6.62,8.16 -16.44,19.77 -24.53,36.95 -8.1,17.17 -14.46,39.92 -11.18,60.28 3.28,20.35 16.2,38.32 26.31,49.23 10.11,10.89 17.41,14.74 33.93,18.76 16.52,4.02 42.27,8.22 67.35,8.36 25.08,0.13 49.51,-3.81 69.85,-15.02 20.33,-11.22 36.56,-29.7 46.94,-68.97 10.37,-39.27 14.89,-99.33 7.65,-152.04 -7.24,-52.72 -26.26,-98.11 -46.51,-127.85 -20.25,-29.73 -41.73,-43.81 -59.98,-53.4 -18.26,-9.59 -33.29,-14.7 -49.36,-13.35 -16.07,1.34 -33.2,9.11 -47.97,18.59 -14.76,9.48 -27.16,20.67 -33.78,28.84 -6.63,8.17 -7.47,13.31 -10.67,16.76 -3.2,3.44 -8.78,5.17 -15.42,5.4 -6.65,0.24 -14.37,-1.03 -21.43,1.79 -7.07,2.81 -13.48,9.68 -17.11,15.7 -3.62,6.02 -4.46,11.16 -4.23,17.81 0.23,6.65 1.54,14.79 4.78,19.28 3.23,4.49 8.37,5.33 13.31,7.46 4.93,2.13 9.67,5.54 7.54,10.48 -2.13,4.93 -11.11,11.39 -32.31,19.82 -21.2,8.43 -54.61,18.83 -80.32,22.56 -25.72,3.72 -43.74,0.78 -58.34,-6.89 -14.61,-7.68 -25.8,-20.07 -36.56,-35.04 -10.77,-14.97 -21.11,-32.52 -25.71,-61.02 -4.6,-28.5 -3.43,-67.96 -3.09,-94.32 0.34,-26.37 -0.13,-39.67 -1.02,-50.39 -0.89,-10.72 -2.21,-18.85 -9.09,-25.26 -6.89,-6.41 -19.33,-11.09 -29.84,-11.48 -10.51,-0.4 -19.06,3.5 -26.08,22.17z"/>
    <path fill="black" d="M585.5 1127.59c4.28,-1.94 7.7,-6.67 12.4,-11.19 4.7,-4.52 10.69,-8.83 17.76,-11.63 7.06,-2.81 15.2,-4.13 21.43,-1.79 6.23,2.33 10.53,8.33 14.84,14.31 4.3,5.98 8.61,11.98 10.56,16.26 1.94,4.28 1.52,6.86 3.67,9.85 2.15,2.99 6.89,6.42 11.83,8.54 4.94,2.13 10.08,2.97 18.46,8.31 8.38,5.33 19.99,15.15 31.18,27.55 11.19,12.4 21.95,27.37 28,38.93 6.04,11.56 7.35,19.7 8.87,26.56 1.52,6.85 3.26,12.43 -15.52,38.43 -18.79,26 -58.08,72.43 -95.94,101.93 -37.85,29.49 -74.26,42.05 -104.68,50.3 -30.42,8.24 -54.85,12.17 -77.15,11.18 -22.3,-1 -42.46,-6.94 -57.48,-12.03 -15.03,-5.1 -24.91,-9.36 -34.37,-16.19 -9.45,-6.83 -18.49,-16.23 -25.61,-29.29 -7.12,-13.06 -12.31,-29.77 -15.35,-43.48 -3.05,-13.71 -3.94,-24.43 -5.7,-37.93 -1.76,-13.5 -4.38,-29.79 1.13,-47.39 5.52,-17.6 19.18,-36.5 33.07,-48.77 13.9,-12.27 28.03,-17.89 46.47,-17.52 18.44,0.36 41.18,6.73 56.21,11.82 15.02,5.09 22.31,8.93 25.97,10.85 3.65,1.92 3.65,1.92 4.28,-1.94 0.63,-3.87 1.89,-11.58 4.44,-19.1 2.55,-7.52 6.39,-14.81 12.17,-17.83 5.78,-3.03 13.49,-1.77 17.36,-1.13 3.86,0.63 3.86,0.63 -7.54,-10.48 -11.4,-11.11 -34.2,-33.34 -49.93,-58.37 -15.74,-25.04 -24.4,-52.89 -28.98,-81.38 -4.6,-28.5 -5.13,-57.66 -0.26,-79.32 4.86,-21.67 15.1,-35.86 34.55,-57.79 19.43,-21.93 48.07,-51.61 88.1,-70.18 40.03,-18.57 91.46,-26.03 121.25,-30.4 29.78,-4.39 37.92,-5.71 44.57,-5.94 6.65,-0.24 11.79,0.61 17.6,5.52 5.81,4.91 12.27,13.89 13.37,23.32 1.1,9.43 -3.16,19.31 -19,27.3 -15.84,7.98 -43.27,14.07 -75.18,23.39 -31.92,9.32 -68.32,21.88 -94.64,37.4 -26.32,15.52 -42.56,34.01 -51.49,56.33 -8.94,22.33 -10.56,48.49 -5.13,71.84 5.43,23.35 17.94,43.89 27.42,58.66 9.48,14.76 15.94,23.74 21.74,28.66 5.8,4.91 10.95,5.75 15.23,3.81z"/>
   </g>
  </g>
 </g>
</svg>
