<?xml version="1.0" encoding="UTF-8"?>
<!DOCTYPE svg PUBLIC "-//W3C//DTD SVG 1.1//EN" "http://www.w3.org/Graphics/SVG/1.1/DTD/svg11.dtd">
<!-- Creator: CorelDRAW (Versão OEM) -->
<svg xmlns="http://www.w3.org/2000/svg" xml:space="preserve" width="1.66666in" height="1.66666in" version="1.1" shape-rendering="geometricPrecision" text-rendering="geometricPrecision" image-rendering="optimizeQuality" fill-rule="evenodd" clip-rule="evenodd"
viewBox="0 0 1666.66 1666.66"
 xmlns:xlink="http://www.w3.org/1999/xlink"
 xmlns:xodm="http://www.corel.com/coreldraw/odm/2003">
 <g id="Camada_x0020_1">
  <metadata id="CorelCorpID_0Corel-Layer"/>
  <g id="_1541889530688">
   <g>
    <path fill="black" d="M850.98 862.3c0,23.47 5.22,65.21 19.56,104.33 14.35,39.12 37.82,75.64 61.29,99.11 23.48,23.48 46.95,33.9 57.38,41.73 10.43,7.83 7.82,13.04 9.12,22.17 1.31,9.13 6.52,22.17 11.74,31.3 5.22,9.12 10.44,14.34 13.05,16.95 2.61,2.61 2.61,2.61 0,6.52 -2.61,3.91 -7.83,11.73 -11.74,18.25 -3.91,6.52 -6.53,11.74 -10.44,14.35 -3.91,2.61 -9.13,2.61 -19.56,1.3 -10.43,-1.3 -26.08,-3.92 -37.82,-3.92 -11.74,0 -19.56,2.62 -26.08,7.84 -6.52,5.21 -11.74,13.03 -15.65,23.46 -3.91,10.43 -6.52,23.47 -6.52,43.04 0,19.56 2.61,45.64 11.73,67.81 9.13,22.16 24.78,40.42 50.87,48.25 26.08,7.82 62.6,5.21 87.38,3.91 24.78,-1.3 37.82,-1.3 46.94,-2.61 9.13,-1.3 14.35,-3.92 24.78,-14.35 10.43,-10.43 26.09,-28.69 43.04,-53.46 16.96,-24.78 35.21,-56.08 48.25,-84.76 13.05,-28.7 20.87,-54.78 24.78,-71.72 3.92,-16.96 3.92,-24.78 -1.3,-33.91 -5.21,-9.13 -15.65,-19.56 -29.99,-30 -14.34,-10.43 -32.6,-20.87 -43.04,-26.08 -10.43,-5.22 -13.04,-5.22 -14.35,-9.13 -1.3,-3.92 -1.3,-11.74 -3.91,-20.87 -2.61,-9.13 -7.83,-19.56 -13.05,-27.38 -5.21,-7.83 -10.43,-13.04 -18.25,-16.95 -7.83,-3.92 -18.25,-6.53 -28.69,-5.22 -10.44,1.3 -20.87,6.53 -28.7,13.05 -7.82,6.52 -13.04,14.33 -18.26,16.95 -5.21,2.61 -10.43,-0.01 -16.95,-3.92 -6.52,-3.91 -14.34,-9.13 -23.47,-19.56 -9.13,-10.44 -19.56,-26.09 -29.99,-39.13 -10.43,-13.04 -20.87,-23.48 -27.39,-40.43 -6.52,-16.96 -9.13,-40.43 -11.74,-58.69 -2.61,-18.26 -5.21,-31.3 -9.13,-40.42 -3.91,-9.13 -9.12,-14.35 -18.25,-15.66 -9.13,-1.3 -22.17,1.3 -31.3,5.22 -9.12,3.91 -14.34,9.12 -14.34,32.59z"/>
    <path fill="black" d="M758.39 880.56c-27.38,39.12 -79.55,106.94 -116.06,155.19 -36.52,48.25 -57.37,76.94 -66.5,92.59 -9.13,15.65 -6.52,18.26 -3.92,20.87 2.61,2.61 5.22,5.21 6.52,10.44 1.3,5.21 1.3,13.03 0,22.16 -1.3,9.13 -3.92,19.56 -7.83,26.09 -3.91,6.52 -9.13,9.13 -11.74,10.44 -2.61,1.3 -2.61,1.3 -1.3,10.43 1.3,9.12 3.92,27.38 2.61,43.03 -1.3,15.65 -6.52,28.7 -13.04,44.34 -6.52,15.65 -14.34,33.91 -22.17,48.25 -7.83,14.34 -15.65,24.78 -23.48,31.3 -7.83,6.52 -15.65,9.13 -28.69,9.13 -13.04,0 -31.3,-2.61 -54.78,-10.43 -23.47,-7.83 -52.16,-20.87 -80.85,-44.34 -28.69,-23.48 -57.38,-57.38 -75.64,-83.46 -18.25,-26.09 -26.07,-44.34 -29.99,-62.59 -3.91,-18.26 -3.91,-36.52 5.22,-57.38 9.13,-20.87 27.38,-44.34 45.63,-58.69 18.26,-14.35 36.52,-19.57 50.87,-22.17 14.34,-2.61 24.78,-2.61 36.52,0 11.74,2.61 24.78,7.82 35.21,15.65 10.43,7.83 18.25,18.25 23.46,20.87 5.22,2.61 7.84,-2.62 11.75,-6.53 3.91,-3.91 9.13,-6.52 14.34,-7.83 5.22,-1.3 10.43,-1.3 16.96,-1.3 6.52,0 14.34,0 22.17,1.3 7.83,1.3 15.65,3.92 19.56,5.22 3.92,1.3 3.92,1.3 14.35,-16.95 10.43,-18.26 31.29,-54.78 58.68,-93.89 27.39,-39.13 61.3,-80.85 87.38,-112.16 26.08,-31.3 44.34,-52.16 58.69,-62.59 14.34,-10.43 24.78,-10.43 33.91,-6.52 9.13,3.91 16.95,11.73 19.56,20.86 2.61,9.13 0,19.56 -27.39,58.69z"/>
   </g>
   <path fill="black" d="M235.21 342.13c-43.03,-9.9 -77.72,-17.52 -97.46,-22.93 -19.74,-5.41 -24.52,-8.61 -28.11,-11 -3.59,-2.39 -5.98,-3.99 -12.88,-6.35 -6.9,-2.36 -18.3,-5.49 -26.52,-8.21 -8.21,-2.72 -13.23,-5.04 -15.3,-11.27 -2.07,-6.22 -1.18,-16.35 0.7,-21.5 1.88,-5.14 4.76,-5.3 14.96,-2.97 10.21,2.33 27.75,7.13 39.07,8.82 11.33,1.69 16.44,0.26 21.5,0.7 5.07,0.44 10.09,2.77 26.08,8.09 15.99,5.33 42.94,13.65 59.25,19.54 16.31,5.88 21.97,9.32 28.74,12.12 6.78,2.8 14.68,4.96 29.28,-1.88 14.61,-6.85 35.93,-22.7 55.6,-29.1 19.68,-6.4 37.7,-3.35 156.9,27.93 119.2,31.27 339.56,90.76 450.58,122.62 111.01,31.86 112.69,36.09 117.5,42.6 4.82,6.51 12.79,15.3 47.68,29.09 34.89,13.8 96.69,32.62 187.09,60.69 90.4,28.07 209.38,65.38 268.83,85.91 59.45,20.54 59.37,24.28 48.88,59.14 -10.49,34.85 -31.4,100.8 -42.65,140.16 -11.26,39.36 -12.86,52.12 -22.8,57.42 -9.94,5.29 -28.2,3.11 -52.41,-4.93 -24.2,-8.04 -54.34,-21.96 -80.24,-47.92 -25.9,-25.96 -47.55,-63.95 -83.21,-102.49 -35.66,-38.54 -85.31,-77.61 -126.37,-101.59 -41.06,-23.98 -73.52,-32.88 -93.81,-37.97 -20.3,-5.09 -28.43,-6.37 -34.66,-4.31 -6.22,2.07 -10.54,7.49 -13.46,14.7 -2.92,7.22 -4.44,16.23 -1.39,32.63 3.06,16.4 10.69,40.18 17.8,62.41 7.11,22.22 13.71,42.89 15.45,58.93 1.74,16.04 -1.39,27.44 -7.11,36.25 -5.71,8.81 -14.02,15.02 -24.35,18.32 -10.33,3.3 -22.7,3.69 -32.04,1.6 -9.33,-2.08 -15.63,-6.63 -21.96,-14.5 -6.33,-7.86 -12.7,-19.04 -18.46,-37.6 -5.76,-18.55 -10.92,-44.49 -18.75,-64.09 -7.83,-19.59 -18.35,-32.85 -25,-41.27 -6.65,-8.43 -9.44,-12.02 -28.5,-18.18 -19.06,-6.17 -54.39,-14.91 -75.52,-22.11 -21.13,-7.2 -28.07,-12.87 -33.2,-19.94 -5.14,-7.06 -8.48,-15.52 -12.43,-21.79 -3.94,-6.27 -8.48,-10.34 -12.83,-8.24 -4.35,2.11 -8.5,10.41 -30.94,37.87 -22.44,27.47 -63.15,74.11 -108.22,106.7 -45.06,32.59 -94.47,51.12 -120.52,56.71 -26.06,5.59 -28.76,-1.75 -32.61,-16.95 -3.85,-15.2 -8.85,-38.26 -15.05,-56.94 -6.2,-18.68 -13.6,-32.96 -15.35,-38.63 -1.75,-5.67 2.16,-2.71 17.28,-8 15.12,-5.29 41.46,-18.82 70.79,-38.74 29.33,-19.92 61.65,-46.23 80.76,-63.29 19.12,-17.06 25.03,-24.87 25.43,-33.25 0.41,-8.38 -4.69,-17.32 -14.96,-26.27 -10.28,-8.94 -25.75,-17.9 -57.02,-29.32 -31.26,-11.42 -78.32,-25.31 -107.55,-33.82 -29.23,-8.51 -40.63,-11.63 -51,-16.83 -10.37,-5.2 -19.69,-12.47 -24.75,-18.1 -5.06,-5.63 -5.85,-9.62 -7.65,-13.41 -1.79,-3.79 -4.58,-7.39 -31.65,-15.28 -27.08,-7.89 -78.44,-20.07 -121.47,-29.98z"/>
  </g>
 </g>
</svg>
